<?xml version="1.0" encoding="UTF-8" standalone="no"?>
<!DOCTYPE svg PUBLIC "-//W3C//DTD SVG 1.1//EN"
 "http://www.w3.org/Graphics/SVG/1.1/DTD/svg11.dtd">
<!-- Generated by graphviz version 2.26.3 (20100126.1600)
 -->
<!-- Title: theory Pages: 1 -->
<svg width="942pt" height="692pt"
 viewBox="0.00 0.00 942.00 692.00" xmlns="http://www.w3.org/2000/svg" xmlns:xlink="http://www.w3.org/1999/xlink">
<g id="graph1" class="graph" transform="scale(1 1) rotate(0) translate(4 688)">
<title>theory</title>
<polygon fill="white" stroke="white" points="-4,5 -4,-688 939,-688 939,5 -4,5"/>
<!-- Everything is energy and atoms -->
<g id="node1" class="node"><title>Everything is energy and atoms</title>
<ellipse fill="none" stroke="black" cx="249" cy="-666" rx="128.839" ry="18"/>
<text text-anchor="middle" x="249" y="-660.9" font-family="Times,serif" font-size="14.00">Everything is energy and atoms</text>
</g>
<!-- Theory of everything -->
<g id="node3" class="node"><title>Theory of everything</title>
<ellipse fill="none" stroke="black" cx="426" cy="-594" rx="90.9919" ry="18"/>
<text text-anchor="middle" x="426" y="-588.9" font-family="Times,serif" font-size="14.00">Theory of everything</text>
</g>
<!-- Everything is energy and atoms&#45;&gt;Theory of everything -->
<g id="edge2" class="edge"><title>Everything is energy and atoms&#45;&gt;Theory of everything</title>
<path fill="none" stroke="black" d="M290.947,-648.937C316.735,-638.447 349.895,-624.958 376.903,-613.972"/>
<polygon fill="black" stroke="black" points="378.234,-617.209 386.178,-610.199 375.596,-610.725 378.234,-617.209"/>
</g>
<!-- The Universe consists of a limited number of atoms -->
<g id="node7" class="node"><title>The Universe consists of a limited number of atoms</title>
<ellipse fill="none" stroke="black" cx="227" cy="-522" rx="204.231" ry="18"/>
<text text-anchor="middle" x="227" y="-516.9" font-family="Times,serif" font-size="14.00">The Universe consists of a limited number of atoms</text>
</g>
<!-- Theory of everything&#45;&gt;The Universe consists of a limited number of atoms -->
<g id="edge6" class="edge"><title>Theory of everything&#45;&gt;The Universe consists of a limited number of atoms</title>
<path fill="none" stroke="black" d="M382.329,-578.199C353.711,-567.845 315.984,-554.195 284.878,-542.941"/>
<polygon fill="black" stroke="black" points="286.048,-539.642 275.454,-539.531 283.667,-546.225 286.048,-539.642"/>
</g>
<!-- A life consists of a limited number of atoms -->
<g id="node9" class="node"><title>A life consists of a limited number of atoms</title>
<ellipse fill="none" stroke="black" cx="626" cy="-522" rx="176.784" ry="18"/>
<text text-anchor="middle" x="626" y="-516.9" font-family="Times,serif" font-size="14.00">A life consists of a limited number of atoms</text>
</g>
<!-- Theory of everything&#45;&gt;A life consists of a limited number of atoms -->
<g id="edge8" class="edge"><title>Theory of everything&#45;&gt;A life consists of a limited number of atoms</title>
<path fill="none" stroke="black" d="M469.891,-578.199C498.756,-567.808 536.843,-554.096 568.171,-542.819"/>
<polygon fill="black" stroke="black" points="569.435,-546.083 577.658,-539.403 567.064,-539.497 569.435,-546.083"/>
</g>
<!-- Energy can be transformed into atoms and vice versa -->
<g id="node4" class="node"><title>Energy can be transformed into atoms and vice versa</title>
<ellipse fill="none" stroke="black" cx="604" cy="-666" rx="207.982" ry="18"/>
<text text-anchor="middle" x="604" y="-660.9" font-family="Times,serif" font-size="14.00">Energy can be transformed into atoms and vice versa</text>
</g>
<!-- Energy can be transformed into atoms and vice versa&#45;&gt;Theory of everything -->
<g id="edge4" class="edge"><title>Energy can be transformed into atoms and vice versa&#45;&gt;Theory of everything</title>
<path fill="none" stroke="black" d="M560.456,-648.387C534.79,-638.005 502.229,-624.834 475.578,-614.054"/>
<polygon fill="black" stroke="black" points="476.633,-610.706 466.051,-610.2 474.009,-617.195 476.633,-610.706"/>
</g>
<!-- The number of possible simultaneous lives in the Universe is limited -->
<g id="node11" class="node"><title>The number of possible simultaneous lives in the Universe is limited</title>
<ellipse fill="none" stroke="black" cx="665" cy="-450" rx="269.076" ry="18"/>
<text text-anchor="middle" x="665" y="-444.9" font-family="Times,serif" font-size="14.00">The number of possible simultaneous lives in the Universe is limited</text>
</g>
<!-- The Universe consists of a limited number of atoms&#45;&gt;The number of possible simultaneous lives in the Universe is limited -->
<g id="edge10" class="edge"><title>The Universe consists of a limited number of atoms&#45;&gt;The number of possible simultaneous lives in the Universe is limited</title>
<path fill="none" stroke="black" d="M323.663,-506.11C391.515,-494.956 482.435,-480.011 553.378,-468.349"/>
<polygon fill="black" stroke="black" points="553.952,-471.802 563.252,-466.726 552.816,-464.894 553.952,-471.802"/>
</g>
<!-- A new life consits of atoms from previous lives -->
<g id="node14" class="node"><title>A new life consits of atoms from previous lives</title>
<ellipse fill="none" stroke="black" cx="189" cy="-450" rx="189.133" ry="18"/>
<text text-anchor="middle" x="189" y="-444.9" font-family="Times,serif" font-size="14.00">A new life consits of atoms from previous lives</text>
</g>
<!-- The Universe consists of a limited number of atoms&#45;&gt;A new life consits of atoms from previous lives -->
<g id="edge14" class="edge"><title>The Universe consists of a limited number of atoms&#45;&gt;A new life consits of atoms from previous lives</title>
<path fill="none" stroke="black" d="M217.411,-503.831C213.168,-495.792 208.088,-486.167 203.404,-477.292"/>
<polygon fill="black" stroke="black" points="206.481,-475.623 198.718,-468.413 200.29,-478.891 206.481,-475.623"/>
</g>
<!-- A life consists of a limited number of atoms&#45;&gt;The number of possible simultaneous lives in the Universe is limited -->
<g id="edge12" class="edge"><title>A life consists of a limited number of atoms&#45;&gt;The number of possible simultaneous lives in the Universe is limited</title>
<path fill="none" stroke="black" d="M635.841,-503.831C640.196,-495.792 645.41,-486.167 650.217,-477.292"/>
<polygon fill="black" stroke="black" points="653.341,-478.873 655.026,-468.413 647.186,-475.539 653.341,-478.873"/>
</g>
<!-- A life consists of a limited number of atoms&#45;&gt;A new life consits of atoms from previous lives -->
<g id="edge16" class="edge"><title>A life consists of a limited number of atoms&#45;&gt;A new life consits of atoms from previous lives</title>
<path fill="none" stroke="black" d="M532.789,-506.643C462.762,-495.105 366.803,-479.295 294.059,-467.309"/>
<polygon fill="black" stroke="black" points="294.389,-463.817 283.953,-465.645 293.251,-470.724 294.389,-463.817"/>
</g>
<!-- Your life is limited -->
<g id="node24" class="node"><title>Your life is limited</title>
<ellipse fill="none" stroke="black" cx="512" cy="-378" rx="83.8426" ry="18"/>
<text text-anchor="middle" x="512" y="-372.9" font-family="Times,serif" font-size="14.00">Your life is limited</text>
</g>
<!-- The number of possible simultaneous lives in the Universe is limited&#45;&gt;Your life is limited -->
<g id="edge26" class="edge"><title>The number of possible simultaneous lives in the Universe is limited&#45;&gt;Your life is limited</title>
<path fill="none" stroke="black" d="M626.786,-432.017C605.334,-421.922 578.468,-409.279 556.123,-398.764"/>
<polygon fill="black" stroke="black" points="557.39,-395.492 546.852,-394.401 554.41,-401.826 557.39,-395.492"/>
</g>
<!-- Your life in the Universe is forever -->
<g id="node17" class="node"><title>Your life in the Universe is forever</title>
<ellipse fill="none" stroke="black" cx="441" cy="-306" rx="141.838" ry="18"/>
<text text-anchor="middle" x="441" y="-300.9" font-family="Times,serif" font-size="14.00">Your life in the Universe is forever</text>
</g>
<!-- A new life consits of atoms from previous lives&#45;&gt;Your life in the Universe is forever -->
<g id="edge18" class="edge"><title>A new life consits of atoms from previous lives&#45;&gt;Your life in the Universe is forever</title>
<path fill="none" stroke="black" d="M220.153,-432.198C265.774,-406.129 350.769,-357.561 400.967,-328.876"/>
<polygon fill="black" stroke="black" points="402.972,-331.761 409.918,-323.761 399.499,-325.684 402.972,-331.761"/>
</g>
<!-- You are alive -->
<g id="node19" class="node"><title>You are alive</title>
<ellipse fill="none" stroke="black" cx="441" cy="-234" rx="61.0946" ry="18"/>
<text text-anchor="middle" x="441" y="-228.9" font-family="Times,serif" font-size="14.00">You are alive</text>
</g>
<!-- Your life in the Universe is forever&#45;&gt;You are alive -->
<g id="edge20" class="edge"><title>Your life in the Universe is forever&#45;&gt;You are alive</title>
<path fill="none" stroke="black" d="M441,-287.831C441,-280.131 441,-270.974 441,-262.417"/>
<polygon fill="black" stroke="black" points="444.5,-262.413 441,-252.413 437.5,-262.413 444.5,-262.413"/>
</g>
<!-- Your life in the Universe is forever&#45;&gt;Your life is limited -->
<g id="edge34" class="edge"><title>Your life in the Universe is forever&#45;&gt;Your life is limited</title>
<path fill="none" stroke="black" d="M464.592,-323.913C473.879,-332.469 484.323,-342.867 493.109,-352.25"/>
<polygon fill="black" stroke="black" points="490.707,-354.81 500.036,-359.831 495.874,-350.088 490.707,-354.81"/>
</g>
<!-- You died -->
<g id="node21" class="node"><title>You died</title>
<ellipse fill="none" stroke="black" cx="483" cy="-162" rx="46.1459" ry="18"/>
<text text-anchor="middle" x="483" y="-156.9" font-family="Times,serif" font-size="14.00">You died</text>
</g>
<!-- You are alive&#45;&gt;You died -->
<g id="edge22" class="edge"><title>You are alive&#45;&gt;You died</title>
<path fill="none" stroke="black" d="M445.646,-215.831C449.818,-207.244 455.705,-196.847 461.645,-187.488"/>
<polygon fill="black" stroke="black" points="464.709,-189.199 467.301,-178.926 458.868,-185.341 464.709,-189.199"/>
</g>
<!-- You will die -->
<g id="node26" class="node"><title>You will die</title>
<ellipse fill="none" stroke="black" cx="501" cy="-18" rx="59.1448" ry="18"/>
<text text-anchor="middle" x="501" y="-12.9" font-family="Times,serif" font-size="14.00">You will die</text>
</g>
<!-- You are alive&#45;&gt;You will die -->
<g id="edge40" class="edge"><title>You are alive&#45;&gt;You will die</title>
<path fill="none" stroke="black" d="M424.86,-216.183C403.879,-184.917 374.22,-119.031 401,-72 410.831,-54.7349 428.596,-42.42 446.516,-33.9541"/>
<polygon fill="black" stroke="black" points="448.097,-37.0827 455.86,-29.872 445.295,-30.6681 448.097,-37.0827"/>
</g>
<!-- You died&#45;&gt;You are alive -->
<g id="edge24" class="edge"><title>You died&#45;&gt;You are alive</title>
<path fill="none" stroke="black" d="M478.426,-180.021C474.318,-188.495 468.522,-198.758 462.648,-208.05"/>
<polygon fill="black" stroke="black" points="459.615,-206.292 457.045,-216.571 465.464,-210.138 459.615,-206.292"/>
</g>
<!-- You will be reborn -->
<g id="node28" class="node"><title>You will be reborn</title>
<ellipse fill="none" stroke="black" cx="501" cy="-90" rx="81.8927" ry="18"/>
<text text-anchor="middle" x="501" y="-84.9" font-family="Times,serif" font-size="14.00">You will be reborn</text>
</g>
<!-- You died&#45;&gt;You will be reborn -->
<g id="edge42" class="edge"><title>You died&#45;&gt;You will be reborn</title>
<path fill="none" stroke="black" d="M481.59,-143.831C482.809,-135.841 484.99,-126.282 487.559,-117.451"/>
<polygon fill="black" stroke="black" points="490.897,-118.504 490.594,-107.913 484.227,-116.381 490.897,-118.504"/>
</g>
<!-- Your life is limited&#45;&gt;Your life in the Universe is forever -->
<g id="edge36" class="edge"><title>Your life is limited&#45;&gt;Your life in the Universe is forever</title>
<path fill="none" stroke="black" d="M488.935,-360.571C479.419,-351.836 468.622,-341.091 459.614,-331.453"/>
<polygon fill="black" stroke="black" points="462.158,-329.049 452.832,-324.021 456.987,-333.767 462.158,-329.049"/>
</g>
<!-- Your life is limited&#45;&gt;You will die -->
<g id="edge28" class="edge"><title>Your life is limited&#45;&gt;You will die</title>
<path fill="none" stroke="black" d="M547.869,-361.681C563.701,-352.723 581.144,-340.124 592,-324 614.832,-290.088 611,-274.882 611,-234 611,-234 611,-234 611,-162 611,-121.118 615.808,-105.234 592,-72 581.089,-56.7697 564.429,-45.1041 548.333,-36.5802"/>
<polygon fill="black" stroke="black" points="549.481,-33.242 538.968,-31.9214 546.363,-39.5093 549.481,-33.242"/>
</g>
<!-- You will die&#45;&gt;You are alive -->
<g id="edge38" class="edge"><title>You will die&#45;&gt;You are alive</title>
<path fill="none" stroke="black" d="M465.835,-32.6135C448.542,-41.1019 429.363,-53.8008 419,-72 394.755,-114.579 416.77,-172.613 431.349,-206.419"/>
<polygon fill="black" stroke="black" points="428.186,-207.922 435.397,-215.684 434.6,-205.119 428.186,-207.922"/>
</g>
<!-- You will die&#45;&gt;You will be reborn -->
<g id="edge30" class="edge"><title>You will die&#45;&gt;You will be reborn</title>
<path fill="none" stroke="black" d="M506.927,-35.9134C507.701,-43.6993 507.929,-53.01 507.611,-61.6941"/>
<polygon fill="black" stroke="black" points="504.108,-61.6254 506.952,-71.8314 511.094,-62.0794 504.108,-61.6254"/>
</g>
<!-- You will be reborn&#45;&gt;You died -->
<g id="edge44" class="edge"><title>You will be reborn&#45;&gt;You died</title>
<path fill="none" stroke="black" d="M502.422,-108.093C501.202,-116.12 499.007,-125.741 496.42,-134.619"/>
<polygon fill="black" stroke="black" points="493.068,-133.612 493.365,-144.202 499.737,-135.738 493.068,-133.612"/>
</g>
<!-- You will be reborn&#45;&gt;You will die -->
<g id="edge32" class="edge"><title>You will be reborn&#45;&gt;You will die</title>
<path fill="none" stroke="black" d="M495.048,-71.8314C494.286,-64.0125 494.07,-54.6923 494.4,-46.0221"/>
<polygon fill="black" stroke="black" points="497.9,-46.1239 495.073,-35.9134 490.916,-45.6587 497.9,-46.1239"/>
</g>
</g>
</svg>
